<svg width="500" height="500" viewBox="0 0 500 500" fill="none" xmlns="http://www.w3.org/2000/svg">
<circle cx="252.828" cy="251.315" r="105.176" fill="#CF8CE6"/>
<g filter="url(#filter0_d_27_17)">
<path d="M383.202 284.146L412.438 261.426C412.438 261.426 431.249 284.152 438.062 301.396C444.925 318.766 450.856 330.557 446.674 348.438C445.339 354.148 444.232 356.783 441.631 361.734C438.428 367.831 436.176 371.155 431.013 375.715C421.379 384.223 413.497 386.689 400.821 388.819C388.146 390.949 368.486 390.615 348.089 387.039C332.79 384.357 319.54 380.363 302.347 373.082C278.243 362.875 264.911 356.605 241.868 344.187C217.725 331.176 185.088 309.691 163.809 292.892C151.776 283.393 135.991 269.149 118.682 250.792C104.79 236.058 90.4118 215.43 85.5441 205.86C77.6341 190.308 76.4526 188.982 72.656 171.906C70.737 163.275 71.1538 150.635 74.1099 142.302C76.4566 135.687 78.4527 132.011 83.059 126.715C91.3294 117.206 99.2942 114.826 111.375 111.238C120.374 108.565 125.82 108.26 135.207 108.082C141.581 107.961 151.506 109.021 151.506 109.021L148.437 144.823C148.437 144.823 136.874 144.08 129.558 144.993C124.623 145.609 122.729 145.606 117.083 147.545C114.556 148.413 112.016 150.729 110.452 153.453C108.215 157.35 108.278 160.624 109.45 166.478C110.623 172.333 112.849 178.302 117.558 187.325C125.186 201.938 130.838 209.556 141.731 221.928C161.331 244.191 186.492 265.264 200.558 275.133C215.793 285.823 246.158 308.699 278.762 323.92C311.366 339.141 332.278 345.768 345.033 348.369C362.927 352.017 380.145 354.28 386.752 353.54C392.457 352.901 401.246 352.536 405.641 348.841C407.683 347.124 408.957 346.024 409.971 343.556C411.201 340.56 411.036 337.969 410.476 334.779C408.961 326.137 406.817 322.297 403.342 314.492C397.558 301.498 383.202 284.146 383.202 284.146Z" fill="#2C45FF"/>
</g>
<g filter="url(#filter1_d_27_17)">
<path d="M334.515 148.143L331.699 111.95C331.699 111.95 360.453 108.821 378.245 112.552C396.165 116.31 409.017 117.82 421.395 130.894C425.347 135.069 426.907 137.398 429.555 142.198C432.817 148.111 434.322 151.749 435.267 158.435C437.031 170.913 434.795 178.695 429.697 190.22C424.598 201.744 413.714 217.654 399.777 232.419C389.324 243.493 378.903 252.182 363.664 262.323C342.3 276.542 329.971 284.071 307.37 296.228C283.69 308.965 248.49 324.081 223.254 332.43C208.985 337.152 188.807 342.383 164.439 346.641C144.881 350.059 120.237 350.693 109.777 349.511C92.7793 347.591 91.0562 347.843 75.031 341.733C66.9308 338.645 56.81 331.481 51.5852 324.564C47.4377 319.073 45.5066 315.455 43.6583 308.827C40.3398 296.925 42.6903 289.121 46.2742 277.297C48.9441 268.488 51.6337 263.866 56.5547 256.088C59.8968 250.805 66.1212 243.254 66.1212 243.254L93.7671 265.09C93.7671 265.09 86.9177 274.153 83.7162 280.634C81.557 285.005 80.5322 286.554 79.0714 292.222C78.4177 294.758 78.943 298.088 80.3281 300.838C82.3098 304.772 85.0238 306.488 90.4481 308.688C95.8724 310.889 101.96 312.289 111.887 313.304C127.964 314.948 137.25 314.434 153.256 312.197C182.057 308.172 212.885 298.952 228.555 292.766C245.528 286.067 280.64 273.562 310.696 255.092C340.753 236.622 357.464 223.083 366.477 214.047C379.122 201.371 390.267 188.5 393.227 182.693C395.784 177.679 400.229 170.287 399.577 164.697C399.274 162.098 399.061 160.462 397.588 158.3C395.801 155.676 393.59 154.413 390.678 153.149C382.787 149.724 378.486 149.407 370.223 148.038C356.465 145.758 334.515 148.143 334.515 148.143Z" fill="#1072CE"/>
</g>
<g filter="url(#filter2_d_27_17)">
<path d="M279.26 373.011L312.85 386.777C312.85 386.777 302.71 413.865 291.374 428.077C279.956 442.391 272.826 453.19 255.581 458.363C250.075 460.015 247.294 460.36 241.815 460.566C235.067 460.819 231.141 460.527 224.744 458.363C212.807 454.326 206.862 448.828 198.863 439.09C190.865 429.352 181.551 412.474 174.634 393.385C169.446 379.068 166.374 365.852 164.172 347.68C161.084 322.203 159.906 307.806 159.216 282.152C158.492 255.273 160.827 217.035 164.722 190.742C166.925 175.874 171.33 155.5 178.489 131.821C184.235 112.816 194.755 90.5217 200.515 81.7112C209.877 67.394 210.427 65.742 223.092 54.1781C229.494 48.333 240.445 42.5167 248.974 40.9623C255.743 39.7283 259.843 39.6311 266.595 40.9623C278.717 43.3523 284.629 48.9622 293.577 57.4821C300.243 63.8292 303.161 68.3104 307.894 76.2046C311.109 81.5658 315.053 90.5217 315.053 90.5217L283.115 105.39C283.115 105.39 278.102 95.1953 273.753 89.4204C270.821 85.5256 269.899 83.9138 265.493 80.0592C263.522 78.3346 260.312 77.3059 257.233 77.3059C252.828 77.3059 250.075 78.9579 245.67 82.8125C241.264 86.6671 237.275 91.4743 231.903 99.883C223.202 113.502 219.484 122.027 214.282 137.328C204.921 164.861 199.287 196.541 197.762 213.319C196.11 231.491 191.484 268.475 194.458 303.627C197.433 338.78 202.007 359.795 206.022 371.909C211.655 388.905 218.137 404.649 221.991 409.905C225.32 414.444 229.921 421.739 235.207 423.672C237.664 424.57 239.221 425.116 241.815 424.773C244.963 424.357 247.085 422.951 249.524 420.918C256.132 415.412 258.351 411.713 263.291 404.949C271.515 393.688 279.26 373.011 279.26 373.011Z" fill="#192EC9"/>
</g>
<defs>
<filter id="filter0_d_27_17" x="67.4873" y="108.073" width="384.579" height="290.071" filterUnits="userSpaceOnUse" color-interpolation-filters="sRGB">
<feFlood flood-opacity="0" result="BackgroundImageFix"/>
<feColorMatrix in="SourceAlpha" type="matrix" values="0 0 0 0 0 0 0 0 0 0 0 0 0 0 0 0 0 0 127 0" result="hardAlpha"/>
<feOffset dy="4"/>
<feGaussianBlur stdDeviation="2"/>
<feComposite in2="hardAlpha" operator="out"/>
<feColorMatrix type="matrix" values="0 0 0 0 0 0 0 0 0 0 0 0 0 0 0 0 0 0 0.25 0"/>
<feBlend mode="normal" in2="BackgroundImageFix" result="effect1_dropShadow_27_17"/>
<feBlend mode="normal" in="SourceGraphic" in2="effect1_dropShadow_27_17" result="shape"/>
</filter>
<filter id="filter1_d_27_17" x="38.065" y="110.722" width="401.798" height="247.336" filterUnits="userSpaceOnUse" color-interpolation-filters="sRGB">
<feFlood flood-opacity="0" result="BackgroundImageFix"/>
<feColorMatrix in="SourceAlpha" type="matrix" values="0 0 0 0 0 0 0 0 0 0 0 0 0 0 0 0 0 0 127 0" result="hardAlpha"/>
<feOffset dy="4"/>
<feGaussianBlur stdDeviation="2"/>
<feComposite in2="hardAlpha" operator="out"/>
<feColorMatrix type="matrix" values="0 0 0 0 0 0 0 0 0 0 0 0 0 0 0 0 0 0 0.25 0"/>
<feBlend mode="normal" in2="BackgroundImageFix" result="effect1_dropShadow_27_17"/>
<feBlend mode="normal" in="SourceGraphic" in2="effect1_dropShadow_27_17" result="shape"/>
</filter>
<filter id="filter2_d_27_17" x="155.085" y="40" width="163.968" height="428.642" filterUnits="userSpaceOnUse" color-interpolation-filters="sRGB">
<feFlood flood-opacity="0" result="BackgroundImageFix"/>
<feColorMatrix in="SourceAlpha" type="matrix" values="0 0 0 0 0 0 0 0 0 0 0 0 0 0 0 0 0 0 127 0" result="hardAlpha"/>
<feOffset dy="4"/>
<feGaussianBlur stdDeviation="2"/>
<feComposite in2="hardAlpha" operator="out"/>
<feColorMatrix type="matrix" values="0 0 0 0 0 0 0 0 0 0 0 0 0 0 0 0 0 0 0.25 0"/>
<feBlend mode="normal" in2="BackgroundImageFix" result="effect1_dropShadow_27_17"/>
<feBlend mode="normal" in="SourceGraphic" in2="effect1_dropShadow_27_17" result="shape"/>
</filter>
</defs>
</svg>
